<svg xmlns="http://www.w3.org/2000/svg" viewBox="0 0 128 128" role="img" aria-label="笨笨司机头像">
  <rect width="128" height="128" rx="64" fill="#fff1e9" />
  <path d="M27 104c7-24 21-36 37-36s31 12 38 36H27z" fill="#4c7dff" />
  <circle cx="64" cy="54" r="28" fill="#ffd7bd" />
  <path d="M36 54c0-21 13-34 31-34 19 0 31 13 31 34-13-6-27-9-41-8-8 0-15 3-21 8z" fill="#1d2430" />
  <circle cx="53" cy="57" r="4" fill="#1d2430" />
  <circle cx="75" cy="57" r="4" fill="#1d2430" />
  <path d="M55 72c6 5 13 5 19 0" fill="none" stroke="#dd5636" stroke-linecap="round" stroke-width="5" />
  <path d="M43 33h42c8 0 14 6 14 14v4H29v-4c0-8 6-14 14-14z" fill="#ff7a59" />
  <path d="M48 29h32l6 10H42l6-10z" fill="#ff9d6c" />
  <path d="M57 39h14" fill="none" stroke="#fffdf8" stroke-linecap="round" stroke-width="5" />
</svg>
