<svg xmlns="http://www.w3.org/2000/svg" viewBox="0 0 512 512" role="img" aria-label="笨笨专车图标">
  <defs>
    <linearGradient id="bg" x1="80" x2="432" y1="64" y2="448" gradientUnits="userSpaceOnUse">
      <stop stop-color="#ff9d6c" />
      <stop offset="0.58" stop-color="#ff7a59" />
      <stop offset="1" stop-color="#4c7dff" />
    </linearGradient>
    <filter id="shadow" x="72" y="138" width="368" height="244" color-interpolation-filters="sRGB" filterUnits="userSpaceOnUse">
      <feDropShadow dx="0" dy="20" flood-color="#1d2430" flood-opacity="0.22" stdDeviation="18" />
    </filter>
  </defs>
  <rect width="512" height="512" rx="112" fill="url(#bg)" />
  <path d="M136 168c36-38 88-55 139-44 52 12 94 51 112 104 18 54 6 111-30 148-37 38-88 55-140 44-51-12-94-52-111-105-18-53-7-110 30-147z" fill="#fffdf8" opacity="0.18" />
  <g filter="url(#shadow)">
    <path d="M129 280l32-75c8-20 28-33 50-33h90c22 0 42 13 50 33l32 75 28 24v75h-54a45 45 0 0 1-90 0h-22a45 45 0 0 1-90 0h-54v-75l28-24z" fill="#fffdf8" />
    <path d="M178 275l20-53c4-10 13-16 24-16h68c11 0 21 6 24 16l20 53H178z" fill="#dceaff" />
    <circle cx="200" cy="380" r="25" fill="#1d2430" />
    <circle cx="312" cy="380" r="25" fill="#1d2430" />
    <path d="M245 306c13-18 37-17 49 0 12-17 37-18 50-1 13 18 4 43-50 78-53-35-62-59-49-77z" fill="#ff7a59" />
  </g>
</svg>
